<svg width="33" height="33" viewBox="0 0 33 33" fill="none" xmlns="http://www.w3.org/2000/svg">
<path fill-rule="evenodd" clip-rule="evenodd" d="M20.6249 26.125C20.6251 26.8188 20.3631 27.487 19.8914 27.9958C19.4196 28.5045 18.773 28.8161 18.0812 28.8681L17.8749 28.875H15.1249C14.4311 28.8752 13.7629 28.6132 13.2542 28.1414C12.7454 27.6697 12.4338 27.0231 12.3818 26.3312L12.3749 26.125H20.6249ZM16.4999 2.75C18.9955 2.74996 21.3936 3.71923 23.1882 5.45335C24.9829 7.18748 26.0338 9.55087 26.1194 12.045L26.1249 12.375V17.5505L28.6302 22.561C28.7395 22.7796 28.7942 23.0215 28.7896 23.2659C28.785 23.5103 28.7213 23.7499 28.6038 23.9643C28.4864 24.1787 28.3187 24.3614 28.1152 24.4968C27.9117 24.6322 27.6784 24.7162 27.4353 24.7417L27.2772 24.75H5.72266C5.47814 24.7501 5.23724 24.6909 5.02062 24.5774C4.80399 24.464 4.6181 24.2997 4.47886 24.0987C4.33963 23.8977 4.2512 23.666 4.22117 23.4233C4.19114 23.1806 4.22039 22.9343 4.30641 22.7054L4.36966 22.561L6.87491 17.5505V12.375C6.87491 9.82229 7.88897 7.37413 9.69401 5.5691C11.499 3.76406 13.9472 2.75 16.4999 2.75ZM16.4999 5.5C14.7283 5.5001 13.0251 6.18412 11.7455 7.40941C10.4659 8.6347 9.70868 10.3067 9.63179 12.0766L9.62491 12.375V17.5505C9.62493 17.8915 9.56152 18.2296 9.43791 18.5474L9.33479 18.7811L7.72604 22H25.2752L23.6664 18.7798C23.5138 18.4749 23.4192 18.1443 23.3873 17.8049L23.3749 17.5505V12.375C23.3749 10.5516 22.6506 8.80295 21.3613 7.51364C20.072 6.22433 18.3233 5.5 16.4999 5.5Z" fill="currentColor"/>
</svg>
