<svg width="36" height="36" viewBox="0 0 36 36" fill="none" xmlns="http://www.w3.org/2000/svg">
<g clip-path="url(#clip0_906_1246)">
<path d="M33.62 17.53C30.25 11.3 24.34 7.53 17.8 7.53C11.26 7.53 5.33997 11.3 1.99997 17.53L1.71997 18L1.97997 18.48C5.34997 24.71 11.26 28.48 17.8 28.48C24.34 28.48 30.26 24.76 33.62 18.48L33.88 18L33.62 17.53ZM17.8 26.43C12.17 26.43 6.99997 23.29 3.99997 18C6.99997 12.71 12.17 9.57 17.8 9.57C23.43 9.57 28.54 12.72 31.59 18C28.54 23.29 23.42 26.43 17.8 26.43Z" fill="black"/>
<path d="M18.09 24.89C21.8787 24.89 24.95 21.8187 24.95 18.03C24.95 14.2413 21.8787 11.17 18.09 11.17C14.3013 11.17 11.23 14.2413 11.23 18.03C11.23 21.8187 14.3013 24.89 18.09 24.89Z" fill="black"/>
</g>
<defs>
<clipPath id="clip0_906_1246">
<rect width="36" height="36" fill="white"/>
</clipPath>
</defs>
</svg>
