<svg width="36" height="36" viewBox="0 0 36 36" fill="none" xmlns="http://www.w3.org/2000/svg">
<g clip-path="url(#clip0_906_1241)">
<path d="M18.37 11.17C17.5607 11.1712 16.7581 11.3168 16 11.6L24.8 20.4C25.0868 19.6324 25.2324 18.8194 25.23 18C25.2221 16.1858 24.4958 14.4486 23.2102 13.1686C21.9245 11.8886 20.1842 11.17 18.37 11.17Z" fill="black"/>
<path d="M34.29 17.53C30.92 11.3 25.01 7.53 18.47 7.53C16.6893 7.53384 14.9206 7.82075 13.23 8.38L14.84 10C16.0259 9.69373 17.2452 9.53586 18.47 9.53C24.1 9.53 29.22 12.67 32.27 17.96C31.1501 19.9219 29.6671 21.6527 27.9 23.06L29.32 24.48C31.3666 22.8299 33.066 20.7906 34.32 18.48L34.58 18L34.29 17.53Z" fill="black"/>
<path d="M4.87 5.77999L9.33 10.24C6.51034 12.0544 4.20616 14.5652 2.64 17.53L2.38 18L2.64 18.48C6.01 24.71 11.92 28.48 18.46 28.48C21.0128 28.4805 23.5325 27.9027 25.83 26.79L30.83 31.79L32.58 30.29L6.58 4.28999L4.87 5.77999ZM13.17 14.08C12.2344 15.3994 11.7959 17.0073 11.9321 18.619C12.0683 20.2307 12.7704 21.7422 13.9141 22.8859C15.0578 24.0296 16.5693 24.7317 18.181 24.8679C19.7927 25.0041 21.4006 24.5656 22.72 23.63L24.32 25.23C22.4679 26.022 20.4744 26.4302 18.46 26.43C12.83 26.43 7.71 23.29 4.66 18C6.12408 15.4085 8.23201 13.2386 10.78 11.7L13.17 14.08Z" fill="black"/>
</g>
<defs>
<clipPath id="clip0_906_1241">
<rect width="36" height="36" fill="white"/>
</clipPath>
</defs>
</svg>
