<svg width="3" height="15" viewBox="0 0 3 15" fill="none" xmlns="http://www.w3.org/2000/svg">
<path d="M0.00625014 1.87497C-0.0111961 1.70116 0.00798 1.52562 0.062542 1.35968C0.117104 1.19374 0.20584 1.04108 0.323028 0.911538C0.440216 0.781999 0.583253 0.678459 0.742915 0.607596C0.902577 0.536734 1.07532 0.500122 1.25 0.500122C1.42468 0.500122 1.59742 0.536734 1.75709 0.607596C1.91675 0.678459 2.05978 0.781999 2.17697 0.911538C2.29416 1.04108 2.3829 1.19374 2.43746 1.35968C2.49202 1.52562 2.5112 1.70116 2.49375 1.87497L2.00875 9.81247C1.99001 10.0007 1.90199 10.1752 1.76177 10.3022C1.62155 10.4291 1.43915 10.4994 1.25 10.4994C1.06085 10.4994 0.878449 10.4291 0.738231 10.3022C0.598013 10.1752 0.509987 10.0007 0.49125 9.81247L0.00625014 1.87497ZM0 13C0 12.6684 0.131696 12.3505 0.366117 12.1161C0.600537 11.8817 0.918479 11.75 1.25 11.75C1.58152 11.75 1.89946 11.8817 2.13388 12.1161C2.3683 12.3505 2.5 12.6684 2.5 13C2.5 13.3315 2.3683 13.6494 2.13388 13.8839C1.89946 14.1183 1.58152 14.25 1.25 14.25C0.918479 14.25 0.600537 14.1183 0.366117 13.8839C0.131696 13.6494 0 13.3315 0 13Z" fill="#FF0000"/>
</svg>
