<svg width="28" height="28" viewBox="0 0 28 28" fill="none" xmlns="http://www.w3.org/2000/svg">
<path d="M22.042 5.47499C21.5772 5.00904 21.0251 4.63923 20.4174 4.3867C19.8096 4.13416 19.158 4.00385 18.4999 4.0032C17.8418 4.00255 17.19 4.13157 16.5817 4.38291C15.9734 4.63424 15.4207 5.00296 14.955 5.46799L3.70696 16.708C3.61405 16.8008 3.50376 16.8745 3.38239 16.9247C3.26102 16.9749 3.13095 17.0007 2.9996 17.0007C2.86826 17.0006 2.7382 16.9747 2.61687 16.9244C2.49554 16.8741 2.3853 16.8004 2.29246 16.7075C2.19961 16.6146 2.12598 16.5043 2.07576 16.3829C2.02553 16.2616 1.99971 16.1315 1.99976 16.0001C1.9998 15.8688 2.02572 15.7387 2.07603 15.6174C2.12633 15.4961 2.20005 15.3858 2.29296 15.293L13.542 4.05299C14.1916 3.3954 14.9649 2.87281 15.8174 2.51531C16.6698 2.15781 17.5845 1.97246 18.5089 1.96994C19.4333 1.96741 20.349 2.14775 21.2034 2.50059C22.0578 2.85342 22.834 3.37177 23.4872 4.0258C24.1404 4.67983 24.6578 5.45661 25.0096 6.31142C25.3614 7.16623 25.5407 8.08219 25.537 9.00656C25.5334 9.93092 25.3469 10.8454 24.9884 11.6974C24.6299 12.5495 24.1063 13.3221 23.448 13.971L12.623 24.782C11.8378 25.5584 10.7772 25.9924 9.67302 25.9892C8.56881 25.986 7.51078 25.5458 6.73018 24.7648C5.94958 23.9838 5.5099 22.9255 5.50723 21.8213C5.50457 20.7171 5.93914 19.6567 6.71596 18.872L17.543 8.04299C17.7316 7.86083 17.9842 7.76004 18.2464 7.76231C18.5086 7.76459 18.7594 7.86976 18.9448 8.05517C19.1302 8.24058 19.2354 8.49139 19.2376 8.75359C19.2399 9.01578 19.1391 9.26839 18.957 9.45699L8.12996 20.287C7.72832 20.6968 7.50464 21.2486 7.50754 21.8224C7.51044 22.3963 7.73968 22.9458 8.14544 23.3515C8.5512 23.7573 9.10069 23.9865 9.67451 23.9894C10.2483 23.9923 10.8001 23.7686 11.21 23.367L22.035 12.556C22.9742 11.6175 23.5024 10.3446 23.5037 9.01694C23.5051 7.68923 22.9793 6.4153 22.042 5.47499Z" fill="#757575"/>
</svg>
