<svg width="16" height="16" viewBox="0 0 16 16" fill="none" xmlns="http://www.w3.org/2000/svg">
<path d="M12.5954 3.12857C12.3298 2.86232 12.0143 2.651 11.667 2.50669C11.3198 2.36239 10.9474 2.28792 10.5714 2.28755C10.1953 2.28718 9.82282 2.36091 9.47524 2.50453C9.12767 2.64815 8.8118 2.85884 8.54567 3.12457L2.11824 9.54743C2.06515 9.60048 2.00213 9.64256 1.93278 9.67126C1.86343 9.69996 1.7891 9.71472 1.71404 9.71469C1.63899 9.71466 1.56467 9.69985 1.49534 9.67111C1.426 9.64236 1.36301 9.60024 1.30996 9.54715C1.2569 9.49405 1.21483 9.43103 1.18613 9.36168C1.15743 9.29233 1.14267 9.218 1.1427 9.14294C1.14273 9.06789 1.15754 8.99357 1.18628 8.92424C1.21503 8.8549 1.25715 8.79191 1.31024 8.73886L7.73824 2.316C8.10947 1.94024 8.55136 1.64162 9.03847 1.43733C9.52559 1.23304 10.0483 1.12713 10.5765 1.12569C11.1047 1.12424 11.628 1.2273 12.1162 1.42892C12.6044 1.63053 13.048 1.92674 13.4212 2.30047C13.7945 2.67419 14.0902 3.11807 14.2912 3.60653C14.4922 4.095 14.5947 4.6184 14.5926 5.14661C14.5905 5.67482 14.4839 6.1974 14.2791 6.68427C14.0742 7.17113 13.775 7.61266 13.3988 7.98343L7.2131 14.1611C6.76445 14.6048 6.1584 14.8528 5.52742 14.851C4.89645 14.8491 4.29186 14.5976 3.8458 14.1513C3.39974 13.705 3.1485 13.1003 3.14697 12.4693C3.14545 11.8384 3.39378 11.2324 3.83767 10.784L10.0245 4.596C10.1323 4.49191 10.2766 4.43431 10.4265 4.43562C10.5763 4.43692 10.7196 4.49702 10.8256 4.60296C10.9315 4.70891 10.9916 4.85223 10.9929 5.00206C10.9942 5.15189 10.9366 5.29623 10.8325 5.404L4.64567 11.5926C4.41616 11.8268 4.28835 12.1421 4.29001 12.47C4.29166 12.7979 4.42266 13.1119 4.65452 13.3437C4.88638 13.5756 5.20038 13.7066 5.52828 13.7082C5.85618 13.7099 6.17148 13.5821 6.40567 13.3526L12.5914 7.17486C13.1281 6.6386 13.4299 5.91123 13.4307 5.15254C13.4314 4.39386 13.131 3.66589 12.5954 3.12857Z" fill="#757575"/>
</svg>
