<svg width="20" height="20" viewBox="0 0 20 20" fill="none" xmlns="http://www.w3.org/2000/svg">
<path d="M9.375 1.875C8.69125 1.875 8.125 2.44125 8.125 3.125V4.18C8.08753 4.3007 8.08753 4.42992 8.125 4.55063V6.52375L7.63688 6.855C6.76813 7.43438 6.25 8.4275 6.25 9.4725V9.80438C6.2124 9.92527 6.2124 10.0547 6.25 10.1756V14.18C6.21253 14.3007 6.21253 14.4299 6.25 14.5506V18.125H13.75V14.4919C13.7674 14.4082 13.7674 14.3218 13.75 14.2381V10.1175C13.7674 10.0336 13.7674 9.94702 13.75 9.86313V9.4725C13.75 8.4275 13.2325 7.43437 12.3631 6.85562L11.875 6.52375V4.4925C11.8924 4.4086 11.8924 4.32202 11.875 4.23813V3.125C11.875 2.44125 11.3088 1.875 10.625 1.875H9.375ZM9.375 3.125H10.625V3.75H9.375V3.125ZM9.375 5H10.625V7.20688L10.8988 7.4025L11.66 7.91C12.1556 8.24 12.4488 8.78438 12.4806 9.375H7.51875C7.55063 8.78438 7.84375 8.24 8.33938 7.91L9.10125 7.4025L9.37438 7.20688L9.375 5ZM7.5 10.625H12.5V13.75H7.5V10.625ZM7.5 15H12.5V16.875H7.5V15Z" fill="white"/>
</svg>
