<svg width="18" height="18" viewBox="0 0 18 18" fill="none" xmlns="http://www.w3.org/2000/svg">
<path d="M15.1875 3.09375H2.81251C2.43955 3.09375 2.08187 3.24191 1.81814 3.50563C1.55442 3.76935 1.40626 4.12704 1.40626 4.5V15.75C1.40514 16.0178 1.4812 16.2803 1.62535 16.506C1.7695 16.7317 1.97563 16.9111 2.21907 17.0227C2.40592 17.1102 2.60968 17.1558 2.81603 17.1562C3.14624 17.1555 3.46554 17.0379 3.71743 16.8244L3.72587 16.8166L5.93931 14.9062H15.1875C15.5605 14.9063 15.9182 14.7581 16.1819 14.4944C16.4456 14.2306 16.5938 13.873 16.5938 13.5V4.5C16.5938 4.12704 16.4456 3.76935 16.1819 3.50563C15.9182 3.24191 15.5605 3.09375 15.1875 3.09375ZM14.9063 13.2188H5.62501C5.4225 13.2184 5.22671 13.2913 5.07376 13.4241L3.09376 15.1334V4.78125H14.9063V13.2188Z" fill="#699BF7"/>
</svg>
