<svg width="20" height="20" viewBox="0 0 20 20" fill="none" xmlns="http://www.w3.org/2000/svg">
<path d="M17.5 4.16667H2.50002C2.27901 4.16667 2.06704 4.25447 1.91076 4.41075C1.75448 4.56703 1.66669 4.77899 1.66669 5.00001V8.33334H2.41085C3.24085 8.33334 4.01085 8.90084 4.14419 9.72C4.18496 9.95922 4.17299 10.2045 4.10914 10.4386C4.04528 10.6727 3.93107 10.89 3.77449 11.0754C3.61791 11.2608 3.42273 11.4098 3.2026 11.5119C2.98247 11.614 2.74269 11.6668 2.50002 11.6667H1.66669V15C1.66669 15.221 1.75448 15.433 1.91076 15.5893C2.06704 15.7455 2.27901 15.8333 2.50002 15.8333H17.5C17.721 15.8333 17.933 15.7455 18.0893 15.5893C18.2456 15.433 18.3334 15.221 18.3334 15V11.6667H17.5C17.2574 11.6668 17.0176 11.614 16.7974 11.5119C16.5773 11.4098 16.3821 11.2608 16.2256 11.0754C16.069 10.89 15.9548 10.6727 15.8909 10.4386C15.827 10.2045 15.8151 9.95922 15.8559 9.72C15.9892 8.90084 16.7592 8.33334 17.5892 8.33334H18.3334V5.00001C18.3334 4.77899 18.2456 4.56703 18.0893 4.41075C17.933 4.25447 17.721 4.16667 17.5 4.16667ZM9.16669 14.1667H7.50002V12.5H9.16669V14.1667ZM9.16669 10.8333H7.50002V9.16667H9.16669V10.8333ZM9.16669 7.50001H7.50002V5.83334H9.16669V7.50001Z" fill="white"/>
</svg>
