<svg width="20" height="20" viewBox="0 0 20 20" fill="none" xmlns="http://www.w3.org/2000/svg">
<path d="M15.4167 7.08334V15.4167M15.4167 15.4167V18.3333H4.58335V15.4167M15.4167 15.4167H18.3334V7.08334C18.3334 5.83334 17.5 4.37501 16.25 3.33334C15 2.29167 12.5 1.66667 12.5 1.66667H7.50002C7.50002 1.66667 5.00002 2.29167 3.75002 3.33334C2.50002 4.37501 1.66669 5.83334 1.66669 7.08334V15.4167H4.58335M4.58335 15.4167V7.08334" stroke="white" stroke-width="1.66667" stroke-linecap="round" stroke-linejoin="round"/>
<path d="M12.5 1.66667C12.5 2.32971 12.2366 2.9656 11.7678 3.43444C11.2989 3.90328 10.663 4.16667 10 4.16667C9.33696 4.16667 8.70107 3.90328 8.23223 3.43444C7.76339 2.9656 7.5 2.32971 7.5 1.66667" stroke="white" stroke-width="1.66667" stroke-linecap="round" stroke-linejoin="round"/>
</svg>
