<svg width="32" height="32" viewBox="0 0 32 32" fill="none" xmlns="http://www.w3.org/2000/svg">
<path d="M16 10.6667C16 10.6667 16 10.6667 14.9867 9.33334C13.8133 7.78667 12.08 6.66667 10 6.66667C6.68 6.66667 4 9.34667 4 12.6667C4 13.9067 4.37333 15.0533 5.01333 16C6.09333 17.6133 16 28 16 28M16 10.6667C16 10.6667 16 10.6667 17.0133 9.33334C18.1867 7.78667 19.92 6.66667 22 6.66667C25.32 6.66667 28 9.34667 28 12.6667C28 13.9067 27.6267 15.0533 26.9867 16C25.9067 17.6133 16 28 16 28" stroke="#FF7070" stroke-width="2.66667" stroke-linecap="round" stroke-linejoin="round"/>
</svg>
