<svg width="24" height="24" viewBox="0 0 24 24" fill="none" xmlns="http://www.w3.org/2000/svg">
<path d="M12 8V12L14.5 14.5" stroke="#808080" stroke-width="1.5" stroke-linecap="round" stroke-linejoin="round"/>
<path d="M4.338 6.87101L3.588 6.87401C3.58879 7.07171 3.66761 7.26111 3.80731 7.401C3.94701 7.54089 4.1363 7.61996 4.334 7.62101L4.338 6.87101ZM6.88 7.63301C6.97849 7.63347 7.07611 7.61453 7.16728 7.57726C7.25845 7.53999 7.34139 7.48513 7.41136 7.41582C7.48132 7.3465 7.53695 7.26408 7.57507 7.17326C7.61319 7.08244 7.63304 6.985 7.6335 6.88651C7.63396 6.78802 7.61502 6.6904 7.57775 6.59923C7.54048 6.50806 7.48562 6.42513 7.41631 6.35516C7.34699 6.28519 7.26456 6.22956 7.17375 6.19144C7.08293 6.15333 6.98549 6.13347 6.887 6.13301L6.88 7.63301ZM5.075 4.32101C5.07447 4.22252 5.05456 4.1251 5.01638 4.0343C4.9782 3.94351 4.92252 3.86113 4.8525 3.79185C4.78249 3.72258 4.69951 3.66778 4.60832 3.63057C4.51712 3.59337 4.41949 3.57449 4.321 3.57501C4.22251 3.57554 4.12508 3.59546 4.03429 3.63363C3.9435 3.67181 3.86111 3.72749 3.79184 3.79751C3.72257 3.86752 3.66777 3.9505 3.63056 4.04169C3.59335 4.13289 3.57447 4.23052 3.575 4.32901L5.075 4.32101ZM3.827 10.785C3.84137 10.687 3.83618 10.5871 3.81173 10.4911C3.78727 10.3951 3.74404 10.3049 3.68453 10.2257C3.62502 10.1465 3.5504 10.0799 3.465 10.0297C3.37959 9.97945 3.28508 9.94666 3.18694 9.93319C3.08879 9.91971 2.98894 9.92582 2.89317 9.95115C2.79739 9.97648 2.70759 10.0205 2.62893 10.0808C2.55028 10.141 2.48434 10.2162 2.43492 10.3021C2.3855 10.3879 2.35358 10.4827 2.341 10.581L3.827 10.785ZM18.862 5.13801C15.042 1.31801 8.869 1.27801 5.074 5.07401L6.134 6.13401C9.334 2.93501 14.557 2.95401 17.802 6.19801L18.862 5.13801ZM5.138 18.862C8.958 22.682 15.131 22.722 18.926 18.926L17.866 17.866C14.666 21.065 9.443 21.046 6.198 17.802L5.138 18.862ZM18.926 18.926C22.721 15.131 22.682 8.95801 18.862 5.13801L17.802 6.19801C21.046 9.44301 21.065 14.666 17.866 17.866L18.926 18.926ZM5.074 5.07401L3.807 6.34001L4.868 7.40001L6.134 6.13401L5.074 5.07401ZM4.334 7.62101L6.88 7.63301L6.887 6.13301L4.342 6.12101L4.334 7.62101ZM5.088 6.86701L5.075 4.32101L3.575 4.32901L3.588 6.87401L5.088 6.86701ZM2.34 10.58C2.13438 12.0826 2.27995 13.6124 2.76526 15.0492C3.25057 16.4861 4.0624 17.7908 5.137 18.861L6.197 17.801C5.2861 16.8944 4.59789 15.7888 4.18649 14.5713C3.77508 13.3537 3.65168 12.0573 3.826 10.784L2.34 10.58Z" fill="#808080"/>
</svg>
