<svg width="17" height="18" viewBox="0 0 17 18" fill="none" xmlns="http://www.w3.org/2000/svg">
<path d="M8.01085 1.85902C6.55072 1.86079 5.15088 2.45778 4.11841 3.51902C3.08594 4.58026 2.50515 6.01911 2.50342 7.51993C2.50168 8.7464 2.89144 9.9396 3.61292 10.9165C3.61292 10.9165 3.76312 11.1197 3.78765 11.1491L8.01085 16.2686L12.236 11.1465C12.2581 11.1192 12.4088 10.9165 12.4088 10.9165L12.4093 10.9149C13.1304 9.93848 13.52 8.74584 13.5183 7.51993C13.5165 6.01911 12.9358 4.58026 11.9033 3.51902C10.8708 2.45778 9.47098 1.86079 8.01085 1.85902ZM8.01085 9.57844C7.61475 9.57844 7.22755 9.45771 6.89821 9.23152C6.56887 9.00532 6.31217 8.68383 6.16059 8.30769C6.00901 7.93154 5.96935 7.51764 6.04663 7.11833C6.1239 6.71902 6.31464 6.35223 6.59473 6.06434C6.87481 5.77645 7.23165 5.5804 7.62014 5.50097C8.00863 5.42154 8.4113 5.46231 8.77725 5.61811C9.14319 5.77392 9.45597 6.03776 9.67603 6.37628C9.89609 6.7148 10.0135 7.11279 10.0135 7.51993C10.0129 8.06567 9.80167 8.58886 9.42624 8.97476C9.0508 9.36066 8.54179 9.57776 8.01085 9.57844Z" fill="#D9D9D9"/>
</svg>
