<svg width="20" height="20" viewBox="0 0 20 20" fill="none" xmlns="http://www.w3.org/2000/svg">
<path d="M6.80836 1.875H14.5C15.0559 1.875 15.6134 1.96583 16.0025 2.36917C16.3859 2.7675 16.4584 3.31917 16.4584 3.83333V13.6667C16.4584 14.1192 16.3984 14.5642 16.1667 14.9242C16.033 15.1318 15.8459 15.2996 15.625 15.41V16.1667C15.625 16.7217 15.535 17.2792 15.1325 17.6683C14.7342 18.0533 14.1825 18.125 13.6684 18.125H4.79169C4.46017 18.125 4.14223 17.9933 3.90781 17.7589C3.67339 17.5245 3.54169 17.2065 3.54169 16.875V5.01417C3.53919 4.59917 3.53669 4.08083 3.65002 3.60833C3.78919 3.03167 4.11002 2.4725 4.79252 2.125C5.07419 1.98167 5.37086 1.925 5.68752 1.9C5.99169 1.875 6.36252 1.875 6.80836 1.875ZM4.79169 16.875H13.6684C14.1242 16.875 14.2375 16.795 14.2634 16.77C14.2842 16.75 14.375 16.6408 14.375 16.1667V15.625H6.04169C5.71017 15.625 5.39223 15.7567 5.15781 15.9911C4.92338 16.2255 4.79169 16.5435 4.79169 16.875Z" fill="white"/>
</svg>
