<svg width="20" height="20" viewBox="0 0 20 20" fill="none" xmlns="http://www.w3.org/2000/svg">
<path fill-rule="evenodd" clip-rule="evenodd" d="M14.4329 1.53L11.6215 5.93714H16.0257L17.5743 3.55428C17.8427 3.13752 17.9346 2.63118 17.8297 2.14667C17.7249 1.66215 17.4318 1.23915 17.015 0.970713C16.5983 0.702276 16.0919 0.610395 15.6074 0.715281C15.1229 0.820167 14.7013 1.11323 14.4329 1.53ZM1.52431 12.64L1.11002 8.95428C1.08771 8.75452 1.10781 8.5523 1.169 8.36084C1.23018 8.16937 1.33109 7.99298 1.46511 7.84318C1.59914 7.69338 1.76326 7.57355 1.94677 7.49152C2.13027 7.40949 2.32902 7.36711 2.53002 7.36714H17.47C17.6712 7.36708 17.87 7.4095 18.0537 7.49161C18.2373 7.57373 18.4015 7.69369 18.5355 7.84365C18.6696 7.99361 18.7704 8.17019 18.8315 8.36183C18.8926 8.55346 18.9126 8.75584 18.89 8.95571L18.4757 12.6414C18.3732 13.5526 18.053 14.4257 17.542 15.1871C17.0311 15.9484 16.3444 16.5756 15.54 17.0157C15.7629 17.4543 15.92 17.9343 15.9972 18.4443C16.0221 18.6102 16.0108 18.7796 15.9642 18.9408C15.9176 19.1021 15.8367 19.2513 15.7272 19.3784C15.6176 19.5055 15.4818 19.6074 15.3292 19.6772C15.1766 19.747 15.0107 19.7831 14.8429 19.7829H5.15717C4.98935 19.7831 4.82346 19.747 4.67085 19.6772C4.51824 19.6074 4.38249 19.5055 4.2729 19.3784C4.1633 19.2513 4.08244 19.1021 4.03584 18.9408C3.98924 18.7796 3.978 18.6102 4.00288 18.4443C4.07805 17.9468 4.23238 17.4645 4.46002 17.0157C3.65546 16.5755 2.96867 15.948 2.4577 15.1864C1.94673 14.4248 1.62658 13.5514 1.52431 12.64ZM10.8929 10.8186C10.8929 10.5818 10.7988 10.3547 10.6314 10.1872C10.4639 10.0198 10.2368 9.92571 10 9.92571C9.76322 9.92571 9.53612 10.0198 9.36868 10.1872C9.20124 10.3547 9.10717 10.5818 9.10717 10.8186V12.6814H7.24431C7.00751 12.6814 6.78041 12.7755 6.61296 12.9429C6.44552 13.1104 6.35145 13.3375 6.35145 13.5743C6.35145 13.8111 6.44552 14.0382 6.61296 14.2056C6.78041 14.3731 7.00751 14.4671 7.24431 14.4671H9.10717V16.3314C9.10717 16.5682 9.20124 16.7953 9.36868 16.9628C9.53612 17.1302 9.76322 17.2243 10 17.2243C10.2368 17.2243 10.4639 17.1302 10.6314 16.9628C10.7988 16.7953 10.8929 16.5682 10.8929 16.3314V14.4686H12.7557C12.9925 14.4686 13.2196 14.3745 13.3871 14.2071C13.5545 14.0396 13.6486 13.8125 13.6486 13.5757C13.6486 13.3389 13.5545 13.1118 13.3871 12.9444C13.2196 12.7769 12.9925 12.6829 12.7557 12.6829H10.8929V10.8157V10.8186Z" fill="white"/>
</svg>
