<svg width="30" height="30" viewBox="0 0 30 30" fill="none" xmlns="http://www.w3.org/2000/svg">
<path d="M17.1625 26.25C16.9427 26.6288 16.6273 26.9433 16.2478 27.1619C15.8683 27.3805 15.438 27.4956 15 27.4956C14.562 27.4956 14.1317 27.3805 13.7522 27.1619C13.3727 26.9433 13.0573 26.6288 12.8375 26.25M22.5 10.5C22.5 8.37875 21.71 6.34375 20.3038 4.84375C18.8975 3.34375 16.9875 2.5 15 2.5C13.0125 2.5 11.1038 3.3425 9.69625 4.84375C8.29 6.34375 7.5 8.37875 7.5 10.5C7.5 19.8337 3.75 22.5 3.75 22.5H26.25C26.25 22.5 22.5 19.8337 22.5 10.5Z" stroke="white" stroke-width="1.6" stroke-linecap="round" stroke-linejoin="round"/>
</svg>
