<svg width="20" height="20" viewBox="0 0 20 20" fill="none" xmlns="http://www.w3.org/2000/svg">
<path d="M15.0667 14.8333C14.6833 14.9417 14.3417 15 14.0417 15C13.0417 15 12.3667 14.2667 12.025 12.7917H11.9833C11.1583 14.3833 10 15.175 8.54168 15.175C7.45002 15.175 6.57502 14.7667 5.91668 13.9417C5.25835 13.1167 4.93335 12.0833 4.93335 10.8333C4.93335 9.375 5.30835 8.20833 6.05002 7.3C6.79168 6.39167 7.80002 5.93333 9.07502 5.93333C9.75835 5.93333 10.375 6.125 10.9083 6.5C11.4417 6.88333 11.85 7.41667 12.1333 8.10833H12.1667L12.7583 6.10833H14.8917L13.1083 10.5417C13.3083 11.575 13.5167 12.2833 13.75 12.6583C13.95 13.0333 14.2333 13.225 14.5833 13.225C14.7833 13.225 14.9417 13.1917 15.0833 13.1333L15.0667 14.8333ZM11.5167 10.4667C11.3417 9.525 11.0583 8.79167 10.675 8.29167C10.3 7.78333 9.84168 7.53333 9.31668 7.53333C8.63335 7.53333 8.08335 7.84167 7.67502 8.45C7.26668 9.06667 7.08335 9.825 7.08335 10.7167C7.08335 11.5333 7.24168 12.2083 7.60002 12.7583C7.95002 13.3083 8.42502 13.575 9.01668 13.575C9.51668 13.575 9.97502 13.3333 10.3833 12.875C10.8 12.4 11.1417 11.7083 11.4167 10.8L11.5167 10.4667Z" fill="white"/>
</svg>
