<svg width="30" height="30" viewBox="0 0 30 30" fill="none" xmlns="http://www.w3.org/2000/svg">
<path d="M23.75 8.75V6.25H21.25V3.75H23.75V1.25H26.25V3.75H28.75V6.25H26.25V8.75H23.75ZM13.75 21.875C15.3125 21.875 16.6408 21.3283 17.735 20.235C18.8292 19.1417 19.3758 17.8133 19.375 16.25C19.375 14.6875 18.8283 13.3596 17.735 12.2662C16.6417 11.1729 15.3133 10.6258 13.75 10.625C12.1875 10.625 10.8596 11.1721 9.76625 12.2662C8.67292 13.3604 8.12583 14.6883 8.125 16.25C8.125 17.8125 8.67208 19.1408 9.76625 20.235C10.8604 21.3292 12.1883 21.8758 13.75 21.875ZM13.75 19.375C12.875 19.375 12.1354 19.0729 11.5312 18.4688C10.9271 17.8646 10.625 17.125 10.625 16.25C10.625 15.375 10.9271 14.6354 11.5312 14.0312C12.1354 13.4271 12.875 13.125 13.75 13.125C14.625 13.125 15.3646 13.4271 15.9688 14.0312C16.5729 14.6354 16.875 15.375 16.875 16.25C16.875 17.125 16.5729 17.8646 15.9688 18.4688C15.3646 19.0729 14.625 19.375 13.75 19.375ZM3.75 26.25C3.0625 26.25 2.47417 26.0054 1.985 25.5163C1.49583 25.0271 1.25083 24.4383 1.25 23.75V8.75C1.25 8.0625 1.495 7.47417 1.985 6.985C2.475 6.49583 3.06333 6.25083 3.75 6.25H7.6875L10 3.75H18.75V8.75H21.25V11.25H26.25V23.75C26.25 24.4375 26.0054 25.0263 25.5163 25.5163C25.0271 26.0063 24.4383 26.2508 23.75 26.25H3.75Z" fill="#818181"/>
</svg>
