<svg width="16" height="17" viewBox="0 0 16 17" fill="none" xmlns="http://www.w3.org/2000/svg">
<path d="M2.84476 14.4035C2.84476 14.4035 1.89648 14.4035 1.89648 13.4386C1.89648 12.4736 2.84476 9.57891 7.58614 9.57891C12.3275 9.57891 13.2758 12.4736 13.2758 13.4386C13.2758 14.4035 12.3275 14.4035 12.3275 14.4035H2.84476ZM7.58614 8.614C8.34063 8.614 9.06423 8.30902 9.59774 7.76615C10.1312 7.22328 10.431 6.48699 10.431 5.71926C10.431 4.95153 10.1312 4.21524 9.59774 3.67237C9.06423 3.1295 8.34063 2.82452 7.58614 2.82452C6.83164 2.82452 6.10805 3.1295 5.57454 3.67237C5.04103 4.21524 4.74131 4.95153 4.74131 5.71926C4.74131 6.48699 5.04103 7.22328 5.57454 7.76615C6.10805 8.30902 6.83164 8.614 7.58614 8.614Z" fill="#818181"/>
</svg>
