<svg width="18" height="18" viewBox="0 0 18 18" fill="none" xmlns="http://www.w3.org/2000/svg">
<path d="M12.41 7.9C12.3163 7.80687 12.1896 7.7546 12.0575 7.7546C11.9254 7.7546 11.7987 7.80687 11.705 7.9C11.6119 7.99368 11.5596 8.12041 11.5596 8.2525C11.5596 8.38459 11.6119 8.51132 11.705 8.605L13.6 10.5H4.5V1.89C4.5 1.75739 4.44732 1.63021 4.35355 1.53645C4.25979 1.44268 4.13261 1.39 4 1.39C3.86739 1.39 3.74021 1.44268 3.64645 1.53645C3.55268 1.63021 3.5 1.75739 3.5 1.89V10.5C3.5 10.7652 3.60536 11.0196 3.79289 11.2071C3.98043 11.3946 4.23478 11.5 4.5 11.5H13.575L11.705 13.375C11.6119 13.4687 11.5596 13.5954 11.5596 13.7275C11.5596 13.8596 11.6119 13.9863 11.705 14.08C11.7981 14.1724 11.9238 14.2244 12.055 14.225C12.1208 14.2254 12.186 14.2128 12.247 14.1879C12.3079 14.163 12.3633 14.1263 12.41 14.08L15.5 11L12.41 7.9Z" fill="#757575"/>
</svg>
