<svg width="20" height="20" viewBox="0 0 20 20" fill="none" xmlns="http://www.w3.org/2000/svg">
<path d="M10.7842 18.2967C12.7156 18.1168 14.523 17.2662 15.8925 15.8925C19.1467 12.6383 19.1467 7.36166 15.8925 4.1075C12.6383 0.853328 7.36166 0.853328 4.1075 4.1075C0.853329 7.36166 0.853329 12.6383 4.1075 15.8925C4.94184 16.7284 5.94465 17.3769 7.04917 17.7951C8.1537 18.2132 9.33462 18.3913 10.5133 18.3175C10.604 18.3305 10.6965 18.3234 10.7842 18.2967ZM2.98083 9.045C3.15916 7.72159 3.70968 6.47604 4.56833 5.45333L9.11666 10L8.21 10.9067C7.33333 10.1983 6.35666 9.81666 5.42583 9.56666C4.88416 9.42166 4.34583 9.31666 3.85333 9.2225L3.84 9.21916C3.53444 9.16194 3.24833 9.10388 2.98166 9.045M2.92416 10.3117C3.14638 10.3578 3.36861 10.4022 3.59083 10.445L3.6025 10.4467C4.105 10.5442 4.60416 10.6408 5.10166 10.7742C5.89583 10.9875 6.6525 11.2875 7.32 11.7975L4.57 14.5475C3.56943 13.3556 2.99082 11.8664 2.92416 10.3117ZM8.20666 12.6783C8.76916 13.3967 9.07333 14.1833 9.2875 14.9892C9.39166 15.3808 9.47166 15.7625 9.5525 16.1492L9.62249 16.4783C9.66416 16.6783 9.70999 16.8786 9.75999 17.0792C8.18048 17.0276 6.66397 16.4475 5.45333 15.4317L8.20666 12.6783ZM11.0342 17.0083C10.9628 16.7464 10.8994 16.4824 10.8442 16.2167L10.78 15.9108C10.6983 15.52 10.6092 15.0942 10.4958 14.6675C10.245 13.7275 9.86083 12.72 9.09583 11.7892L10 10.8842L14.5475 15.4317C13.5452 16.2732 12.3284 16.8191 11.0333 17.0083M10.8833 10L11.8933 8.99083C12.8217 9.77583 13.7933 10.2075 14.6975 10.5125C15.07 10.6392 15.445 10.7475 15.79 10.8483L16.1733 10.96C16.465 11.0483 16.7325 11.1333 16.9767 11.2275C16.7635 12.451 16.2304 13.5964 15.4317 14.5475L10.8833 10ZM16.5308 9.7625L16.1125 9.64C15.7722 9.54354 15.4341 9.43963 15.0983 9.32833C14.3117 9.06166 13.525 8.71166 12.7808 8.10333L15.4308 5.4525C16.4865 6.70982 17.0709 8.29581 17.0833 9.9375C16.8989 9.87527 16.7147 9.81694 16.5308 9.7625ZM14.5475 4.56833L11.8967 7.21916C11.2883 6.475 10.9375 5.68833 10.6717 4.90166C10.5601 4.56574 10.4562 4.22732 10.36 3.88666L10.2367 3.46916C10.1822 3.28472 10.1242 3.10055 10.0625 2.91666C11.7041 2.9289 13.2901 3.51296 14.5475 4.56833ZM9.48666 5.30166C9.79249 6.20583 10.2233 7.17833 11.0092 8.10666L10 9.11666L5.4525 4.56833C6.40355 3.76955 7.54894 3.23653 8.7725 3.02333C8.86666 3.2675 8.95166 3.53416 9.03916 3.82666L9.15166 4.21C9.25166 4.555 9.35999 4.92916 9.48666 5.30166Z" fill="white"/>
</svg>
