<svg width="20" height="20" viewBox="0 0 20 20" fill="none" xmlns="http://www.w3.org/2000/svg">
<path d="M6.66667 18.3333C6.20833 18.3333 5.81611 18.1703 5.49 17.8442C5.16389 17.5181 5.00056 17.1256 5 16.6667V13.0833C5 12.0556 5.14583 11.0661 5.4375 10.115C5.72917 9.1639 6.1875 8.21584 6.8125 7.27084C6.28472 7.14584 5.85083 6.86112 5.51083 6.41667C5.17083 5.97223 5.00056 5.47223 5 4.91667V4.04167C5 3.37501 5.28833 2.81612 5.865 2.36501C6.44167 1.9139 7.04222 1.72279 7.66667 1.79167L15.0833 2.52084C15.3194 2.54862 15.5036 2.64251 15.6358 2.80251C15.7681 2.96251 15.8339 3.1464 15.8333 3.35417V5.83334C15.8333 6.04167 15.7606 6.22584 15.615 6.38584C15.4694 6.54584 15.2922 6.63945 15.0833 6.66667L14.3333 6.75001C14.5278 7.43056 14.7847 8.04167 15.1042 8.58334C15.4236 9.12501 15.8056 9.5139 16.25 9.75001L15.4167 11.2083C14.6806 10.7778 14.1111 10.1842 13.7083 9.42751C13.3056 8.67084 12.9861 7.82695 12.75 6.89584L11.8333 6.97917C11.9444 7.67362 12.1564 8.37501 12.4692 9.08334C12.7819 9.79167 13.0978 10.4306 13.4167 11C13.6667 11.4445 13.8542 11.9097 13.9792 12.3958C14.1042 12.882 14.1667 13.375 14.1667 13.875V16.6667C14.1667 17.125 14.0036 17.5175 13.6775 17.8442C13.3514 18.1708 12.9589 18.3339 12.5 18.3333H6.66667ZM6.66667 4.25001V4.91667C6.66667 5.16667 6.75694 5.36806 6.9375 5.52084C7.11806 5.67362 7.33333 5.73612 7.58333 5.70834L14.1667 5.08334V4.08334L7.58333 3.45834C7.33333 3.43056 7.11806 3.49306 6.9375 3.64584C6.75694 3.79862 6.66667 4.00001 6.66667 4.25001ZM6.66667 16.6667H12.5V13.875C12.5 13.5139 12.455 13.1597 12.365 12.8125C12.275 12.4653 12.1394 12.132 11.9583 11.8125C11.5278 11.0625 11.1528 10.2883 10.8333 9.49001C10.5139 8.69167 10.2917 7.91028 10.1667 7.14584L8.91667 7.25001L8.375 7.95834C7.81944 8.69445 7.39583 9.50362 7.10417 10.3858C6.8125 11.2681 6.66667 12.1672 6.66667 13.0833V16.6667Z" fill="white"/>
</svg>
