<svg width="20" height="20" viewBox="0 0 20 20" fill="none" xmlns="http://www.w3.org/2000/svg">
<path d="M3.33331 12.5C2.63887 12.5 2.04859 12.2569 1.56248 11.7708C1.07637 11.2847 0.833313 10.6944 0.833313 10C0.833313 9.30556 1.07637 8.71528 1.56248 8.22917C2.04859 7.74306 2.63887 7.5 3.33331 7.5V5.83334C3.33331 5.375 3.49665 4.98278 3.82331 4.65667C4.14998 4.33056 4.5422 4.16723 4.99998 4.16667H7.49998C7.49998 3.47223 7.74303 2.88195 8.22915 2.39584C8.71526 1.90973 9.30553 1.66667 9.99998 1.66667C10.6944 1.66667 11.2847 1.90973 11.7708 2.39584C12.2569 2.88195 12.5 3.47223 12.5 4.16667H15C15.4583 4.16667 15.8508 4.33 16.1775 4.65667C16.5041 4.98334 16.6672 5.37556 16.6666 5.83334V7.5C17.3611 7.5 17.9514 7.74306 18.4375 8.22917C18.9236 8.71528 19.1666 9.30556 19.1666 10C19.1666 10.6944 18.9236 11.2847 18.4375 11.7708C17.9514 12.2569 17.3611 12.5 16.6666 12.5V15.8333C16.6666 16.2917 16.5036 16.6842 16.1775 17.0108C15.8514 17.3375 15.4589 17.5006 15 17.5H4.99998C4.54165 17.5 4.14942 17.3369 3.82331 17.0108C3.4972 16.6847 3.33387 16.2922 3.33331 15.8333V12.5ZM7.49998 10.8333C7.8472 10.8333 8.14248 10.7119 8.38581 10.4692C8.62915 10.2264 8.75053 9.93112 8.74998 9.58334C8.74942 9.23556 8.62803 8.94056 8.38581 8.69834C8.14359 8.45612 7.84831 8.33445 7.49998 8.33334C7.15165 8.33223 6.85665 8.45389 6.61498 8.69834C6.37331 8.94278 6.25165 9.23778 6.24998 9.58334C6.24831 9.92889 6.36998 10.2242 6.61498 10.4692C6.85998 10.7142 7.15498 10.8356 7.49998 10.8333ZM12.5 10.8333C12.8472 10.8333 13.1425 10.7119 13.3858 10.4692C13.6291 10.2264 13.7505 9.93112 13.75 9.58334C13.7494 9.23556 13.628 8.94056 13.3858 8.69834C13.1436 8.45612 12.8483 8.33445 12.5 8.33334C12.1516 8.33223 11.8566 8.45389 11.615 8.69834C11.3733 8.94278 11.2516 9.23778 11.25 9.58334C11.2483 9.92889 11.37 10.2242 11.615 10.4692C11.86 10.7142 12.155 10.8356 12.5 10.8333ZM6.66665 14.1667H13.3333V12.5H6.66665V14.1667ZM4.99998 15.8333H15V5.83334H4.99998V15.8333Z" fill="white"/>
</svg>
