<svg width="273" height="280" viewBox="0 0 273 280" fill="none" xmlns="http://www.w3.org/2000/svg">
<path d="M264 124.014L114 59V104.986L254.625 170L264 124.014Z" fill="#001F4D"/>
<path d="M26.9999 207.5L11.9999 114.5L117 61.9998L120 152L26.9999 207.5Z" fill="#001F4D"/>
<path d="M136.585 167.137L164.578 181.134C164.726 181.207 164.726 181.418 164.578 181.491L153.647 186.957C153.593 186.984 153.529 186.985 153.474 186.96L123.958 173.292C123.803 173.22 123.803 173.001 123.958 172.929L136.411 167.134C136.466 167.109 136.53 167.11 136.585 167.137Z" fill="#D9B37E" stroke="black" stroke-width="2"/>
<path d="M243 222.5L153 272V188L259.5 134L243 222.5Z" fill="#002C62"/>
<path d="M28.4838 208.899L15.0593 125.369C15.0339 125.211 15.1945 125.089 15.3398 125.155L152.883 187.947C152.954 187.979 153 188.05 153 188.129V271.675C153 271.824 152.843 271.92 152.71 271.853L28.591 209.046C28.5338 209.017 28.494 208.963 28.4838 208.899Z" fill="#002C62"/>
<path d="M152.03 186.011L13.0778 121.372M152.03 186.011V272.682M152.03 186.011L259.922 132.969M13.0778 121.372L11.5365 120.655C6.93739 118.515 6.90329 111.989 11.4798 109.801L115.231 60.2115C116.8 59.4618 118.616 59.4293 120.211 60.1224L261.112 121.372C265.8 123.41 265.955 130.003 261.367 132.259L259.922 132.969M13.0778 121.372L27.2913 205.557C27.6055 207.418 28.7772 209.023 30.4542 209.889L152.03 272.682M152.03 272.682L238.617 226.147C240.185 225.305 241.298 223.81 241.655 222.067L259.922 132.969" stroke="black" stroke-width="12"/>
<path d="M122.494 87.5795L186.79 121.125C187.157 121.317 187.146 121.847 186.77 122.022L166.359 131.547L145.25 141.398C145.112 141.462 144.952 141.46 144.815 141.392L133.656 135.812L77.7361 107.852C77.3569 107.663 77.3709 107.117 77.7593 106.947L99.5313 97.4219L122.062 87.5647C122.201 87.504 122.359 87.5095 122.494 87.5795Z" fill="#BFAA72"/>
<path d="M99.5313 97.4219L122.062 87.5647C122.201 87.504 122.359 87.5095 122.494 87.5795L186.79 121.125C187.157 121.317 187.146 121.847 186.77 122.022L166.359 131.547M99.5313 97.4219L77.7593 106.947C77.3709 107.117 77.3569 107.663 77.7361 107.852L133.656 135.812L144.815 141.392C144.952 141.46 145.112 141.462 145.25 141.398L166.359 131.547M99.5313 97.4219L166.359 131.547" stroke="black" stroke-width="6"/>
<path d="M79.6247 129.801V107.698C79.6247 107.549 79.7812 107.453 79.9141 107.519L136.389 135.757C136.457 135.791 136.5 135.86 136.5 135.936V146.863C136.5 147.012 136.343 147.109 136.21 147.042L91.0891 124.482C91.0328 124.454 90.9666 124.454 90.9103 124.482L79.9141 129.98C79.7812 130.046 79.6247 129.95 79.6247 129.801Z" fill="#AC8019" stroke="black" stroke-width="6"/>
<path d="M142.189 166.981V150.344C142.189 150.198 142.037 150.101 141.905 150.162L108.15 165.748C107.996 165.819 107.995 166.037 108.147 166.11L127.873 175.578C127.934 175.607 128.005 175.604 128.062 175.57L142.092 167.152C142.152 167.116 142.189 167.051 142.189 166.981Z" fill="#C8A376" stroke="black" stroke-width="6"/>
<path d="M91.2121 124.544L141.249 149.563C141.625 149.751 141.615 150.291 141.232 150.465L126.546 157.141L111.111 164.156C110.98 164.216 110.83 164.216 110.698 164.156L58.4534 140.507C58.0658 140.332 58.0605 139.783 58.4446 139.6L75.3581 131.547L90.7816 124.536C90.9189 124.474 91.0771 124.477 91.2121 124.544Z" fill="#E2B88E"/>
<path d="M126.546 157.141L141.232 150.465C141.615 150.291 141.625 149.751 141.249 149.563L91.2121 124.544C91.0771 124.477 90.9189 124.474 90.7816 124.536L75.3581 131.547M126.546 157.141L111.111 164.156C110.98 164.216 110.83 164.216 110.698 164.156L58.4534 140.507C58.0658 140.332 58.0605 139.783 58.4446 139.6L75.3581 131.547M126.546 157.141L75.3581 131.547" stroke="black" stroke-width="6"/>
<path d="M236.048 144.054L237.028 126.61C237.05 126.215 236.626 125.951 236.282 126.147L179.41 158.418C179.253 158.507 179.156 158.673 179.156 158.853V171.972C179.156 172.344 179.547 172.585 179.88 172.419L235.772 144.473C235.932 144.393 236.037 144.233 236.048 144.054Z" fill="#D6B7A1" stroke="black" stroke-width="6"/>
<path d="M134.551 135.365L195.988 104.647C196.133 104.574 196.304 104.576 196.447 104.653L217.547 115.906L238.041 126.836C238.395 127.025 238.393 127.534 238.038 127.72L179.383 158.444C179.241 158.518 179.072 158.52 178.928 158.448L156.407 147.187L134.551 136.259C134.183 136.075 134.183 135.549 134.551 135.365Z" fill="#DEC9B2"/>
<path d="M156.407 147.187L134.551 136.259C134.183 136.075 134.183 135.549 134.551 135.365L195.988 104.647C196.133 104.574 196.304 104.576 196.447 104.653L217.547 115.906M156.407 147.187L178.928 158.448C179.072 158.52 179.241 158.518 179.383 158.444L238.038 127.72C238.393 127.534 238.395 127.025 238.041 126.836L217.547 115.906M156.407 147.187L217.547 115.906" stroke="black" stroke-width="6"/>
<path d="M136.5 178.159V136.586C136.5 136.209 136.903 135.967 137.236 136.145L178.892 158.421C179.055 158.508 179.156 158.677 179.156 158.862V172.472C179.156 172.661 179.049 172.834 178.88 172.919L156.512 184.103C156.442 184.138 156.366 184.156 156.288 184.156H147.993C147.915 184.156 147.839 184.138 147.769 184.103L136.776 178.606C136.607 178.522 136.5 178.349 136.5 178.159Z" fill="#B28862" stroke="black" stroke-width="6"/>
<path d="M132.155 163.043L162.648 178.29C162.796 178.364 162.796 178.574 162.648 178.648L150.717 184.613C150.663 184.64 150.599 184.641 150.544 184.616L118.391 169.727C118.237 169.655 118.236 169.436 118.391 169.364L131.981 163.041C132.037 163.015 132.101 163.016 132.155 163.043Z" fill="#D9B37E" stroke="black" stroke-width="6"/>
<path d="M36.9683 132.969L70.795 48.4019C70.9864 47.9234 71.3552 47.5372 71.8244 47.3239L161.114 6.73764C162.647 6.04096 164.302 7.43414 163.877 9.06322L147.875 70.4062" stroke="black" stroke-width="12"/>
<path d="M119.258 171.674L82.9941 55.0324C82.6943 54.0681 83.1604 53.0315 84.0807 52.6159L169.107 14.217C169.987 13.8197 171.024 14.1073 171.574 14.9007L238.5 111.5" stroke="black" stroke-width="12"/>
</svg>
