<svg width="294" height="297" viewBox="0 0 294 297" fill="none" xmlns="http://www.w3.org/2000/svg">
<path d="M163.383 196.957L16.7964 128.766M163.383 196.957V288.39M163.383 196.957L277.204 141M16.7964 128.766L8.76824 125.032C6.46869 123.962 6.45164 120.699 8.73989 119.605L125.933 63.5906C126.717 63.2158 127.626 63.1995 128.423 63.546L285.056 131.634C287.4 132.653 287.477 135.95 285.183 137.077L277.204 141M16.7964 128.766L32.0678 219.218C32.2249 220.149 32.8108 220.951 33.6493 221.384L163.383 288.39M163.383 288.39L256.101 238.561C256.885 238.14 257.441 237.393 257.62 236.521L277.204 141" stroke="white" stroke-width="14"/>
<path d="M42.4107 145.453L78.4974 53.2312C78.685 52.7518 79.0502 52.3631 79.5171 52.1462L175.009 7.77637C176.538 7.06575 178.206 8.45064 177.789 10.0847L160.642 77.2758" stroke="white" stroke-width="14"/>
<path d="M128.811 181.831L90.5257 58.6884C90.2259 57.7241 90.692 56.6875 91.6123 56.2719L181.482 15.6855C182.362 15.2882 183.4 15.5758 183.949 16.3692L254.605 118.351" stroke="white" stroke-width="14"/>
<path d="M273 133.014L123 68V113.986L263.625 179L273 133.014Z" fill="#001F4D"/>
<path d="M35.9999 216.5L20.9999 123.5L126 70.9998L129 161L35.9999 216.5Z" fill="#001F4D"/>
<path d="M145.585 176.137L173.578 190.134C173.726 190.207 173.726 190.418 173.578 190.491L162.647 195.957C162.593 195.984 162.529 195.985 162.474 195.96L132.958 182.292C132.803 182.22 132.803 182.001 132.958 181.929L145.411 176.134C145.466 176.109 145.53 176.11 145.585 176.137Z" fill="#D9B37E" stroke="black" stroke-width="2"/>
<path d="M252 231.5L162 281V197L268.5 143L252 231.5Z" fill="#002C62"/>
<path d="M37.4838 217.899L24.0593 134.369C24.0339 134.211 24.1945 134.089 24.3398 134.155L161.883 196.947C161.954 196.979 162 197.05 162 197.129V280.675C162 280.824 161.843 280.92 161.71 280.853L37.591 218.046C37.5338 218.017 37.494 217.963 37.4838 217.899Z" fill="#002C62"/>
<path d="M161.03 195.011L22.0778 130.372M161.03 195.011V281.682M161.03 195.011L268.922 141.969M22.0778 130.372L20.5365 129.655C15.9374 127.515 15.9033 120.989 20.4798 118.801L124.231 69.2115C125.8 68.4618 127.616 68.4293 129.211 69.1224L270.112 130.372C274.8 132.41 274.955 139.003 270.367 141.259L268.922 141.969M22.0778 130.372L36.2913 214.557C36.6055 216.418 37.7772 218.023 39.4542 218.889L161.03 281.682M161.03 281.682L247.617 235.147C249.185 234.305 250.298 232.81 250.655 231.067L268.922 141.969" stroke="black" stroke-width="12"/>
<path d="M131.494 96.5795L195.79 130.125C196.157 130.317 196.146 130.847 195.77 131.022L175.359 140.547L154.25 150.398C154.112 150.462 153.952 150.46 153.815 150.392L142.656 144.812L86.7361 116.852C86.3569 116.663 86.3709 116.117 86.7593 115.947L108.531 106.422L131.062 96.5647C131.201 96.504 131.359 96.5095 131.494 96.5795Z" fill="#BFAA72"/>
<path d="M108.531 106.422L131.062 96.5647C131.201 96.504 131.359 96.5095 131.494 96.5795L195.79 130.125C196.157 130.317 196.146 130.847 195.77 131.022L175.359 140.547M108.531 106.422L86.7593 115.947C86.3709 116.117 86.3569 116.663 86.7361 116.852L142.656 144.812L153.815 150.392C153.952 150.46 154.112 150.462 154.25 150.398L175.359 140.547M108.531 106.422L175.359 140.547" stroke="black" stroke-width="6"/>
<path d="M88.6247 138.801V116.698C88.6247 116.549 88.7812 116.453 88.9141 116.519L145.389 144.757C145.457 144.791 145.5 144.86 145.5 144.936V155.863C145.5 156.012 145.343 156.109 145.21 156.042L100.089 133.482C100.033 133.454 99.9666 133.454 99.9103 133.482L88.9141 138.98C88.7812 139.046 88.6247 138.95 88.6247 138.801Z" fill="#AC8019" stroke="black" stroke-width="6"/>
<path d="M151.189 175.981V159.344C151.189 159.198 151.037 159.101 150.905 159.162L117.15 174.748C116.996 174.819 116.995 175.037 117.147 175.11L136.873 184.578C136.934 184.607 137.005 184.604 137.062 184.57L151.092 176.152C151.152 176.116 151.189 176.051 151.189 175.981Z" fill="#C8A376" stroke="black" stroke-width="6"/>
<path d="M100.212 133.544L150.249 158.563C150.625 158.751 150.615 159.291 150.232 159.465L135.546 166.141L120.111 173.156C119.98 173.216 119.83 173.216 119.698 173.156L67.4534 149.507C67.0658 149.332 67.0605 148.783 67.4446 148.6L84.3581 140.547L99.7816 133.536C99.9189 133.474 100.077 133.477 100.212 133.544Z" fill="#E2B88E"/>
<path d="M135.546 166.141L150.232 159.465C150.615 159.291 150.625 158.751 150.249 158.563L100.212 133.544C100.077 133.477 99.9189 133.474 99.7816 133.536L84.3581 140.547M135.546 166.141L120.111 173.156C119.98 173.216 119.83 173.216 119.698 173.156L67.4534 149.507C67.0658 149.332 67.0605 148.783 67.4446 148.6L84.3581 140.547M135.546 166.141L84.3581 140.547" stroke="black" stroke-width="6"/>
<path d="M245.048 153.054L246.028 135.61C246.05 135.215 245.626 134.951 245.282 135.147L188.41 167.418C188.253 167.507 188.156 167.673 188.156 167.853V180.972C188.156 181.344 188.547 181.585 188.88 181.419L244.772 153.473C244.932 153.393 245.037 153.233 245.048 153.054Z" fill="#D6B7A1" stroke="black" stroke-width="6"/>
<path d="M143.551 144.365L204.988 113.647C205.133 113.574 205.304 113.576 205.447 113.653L226.547 124.906L247.041 135.836C247.395 136.025 247.393 136.534 247.038 136.72L188.383 167.444C188.241 167.518 188.072 167.52 187.928 167.448L165.407 156.187L143.551 145.259C143.183 145.075 143.183 144.549 143.551 144.365Z" fill="#DEC9B2"/>
<path d="M165.407 156.187L143.551 145.259C143.183 145.075 143.183 144.549 143.551 144.365L204.988 113.647C205.133 113.574 205.304 113.576 205.447 113.653L226.547 124.906M165.407 156.187L187.928 167.448C188.072 167.52 188.241 167.518 188.383 167.444L247.038 136.72C247.393 136.534 247.395 136.025 247.041 135.836L226.547 124.906M165.407 156.187L226.547 124.906" stroke="black" stroke-width="6"/>
<path d="M145.5 187.159V145.586C145.5 145.209 145.903 144.967 146.236 145.145L187.892 167.421C188.055 167.508 188.156 167.677 188.156 167.862V181.472C188.156 181.661 188.049 181.834 187.88 181.919L165.512 193.103C165.442 193.138 165.366 193.156 165.288 193.156H156.993C156.915 193.156 156.839 193.138 156.769 193.103L145.776 187.606C145.607 187.522 145.5 187.349 145.5 187.159Z" fill="#B28862" stroke="black" stroke-width="6"/>
<path d="M141.155 172.043L171.648 187.29C171.796 187.364 171.796 187.574 171.648 187.648L159.717 193.613C159.663 193.64 159.599 193.641 159.544 193.616L127.391 178.727C127.237 178.655 127.236 178.436 127.391 178.364L140.981 172.041C141.037 172.015 141.101 172.016 141.155 172.043Z" fill="#D9B37E" stroke="black" stroke-width="6"/>
<path d="M45.9683 141.969L79.795 57.4019C79.9864 56.9234 80.3552 56.5372 80.8244 56.3239L170.114 15.7376C171.647 15.041 173.302 16.4341 172.877 18.0632L156.875 79.4062" stroke="black" stroke-width="12"/>
<path d="M128.258 180.674L91.9941 64.0324C91.6943 63.0681 92.1604 62.0315 93.0807 61.6159L178.107 23.217C178.987 22.8197 180.024 23.1073 180.574 23.9007L247.5 120.5" stroke="black" stroke-width="12"/>
</svg>
