<svg width="26" height="24" viewBox="0 0 26 24" fill="none" xmlns="http://www.w3.org/2000/svg">
<path d="M5.05556 14.7567H15.1667V13.3513H5.05556V14.7567ZM5.05556 10.5405H20.9444V9.13509H5.05556V10.5405ZM5.05556 6.3243H20.9444V4.9189H5.05556V6.3243ZM0 24V2.26972C0 1.62324 0.222926 1.08356 0.668778 0.6507C1.11367 0.2169 1.66833 0 2.33278 0H23.6672C24.3317 0 24.8863 0.2169 25.3312 0.6507C25.7771 1.08356 26 1.62324 26 2.26972V17.4059C26 18.0524 25.7776 18.5925 25.3327 19.0263C24.8868 19.4592 24.3317 19.6756 23.6672 19.6756H4.44456L0 24ZM3.82778 18.2702H23.6672C23.8887 18.2702 24.0924 18.1802 24.2782 18.0004C24.4631 17.8195 24.5556 17.6214 24.5556 17.4059V2.26972C24.5556 2.05422 24.4631 1.85606 24.2782 1.67524C24.0924 1.49534 23.8887 1.4054 23.6672 1.4054H2.33278C2.1113 1.4054 1.90763 1.49534 1.72178 1.67524C1.53689 1.85606 1.44444 2.05422 1.44444 2.26972V20.5821L3.82778 18.2702Z" fill="currentColor"/>
</svg>
