<svg width="24" height="24" viewBox="0 0 24 24" fill="none" xmlns="http://www.w3.org/2000/svg">
<path d="M13.338 0.519767C12.9707 0.185153 12.4941 0 12 0C11.5059 0 11.0293 0.185153 10.662 0.519767L0 10.2334V20.7608C0 21.6199 0.337142 22.4438 0.937258 23.0513C1.53737 23.6587 2.35131 24 3.2 24H20.8C21.6487 24 22.4626 23.6587 23.0627 23.0513C23.6629 22.4438 24 21.6199 24 20.7608V10.2334L13.338 0.519767ZM15 24L9 24V16.8849C9 16.0795 9.31607 15.3071 9.87868 14.7376C10.4413 14.1681 11.2044 13.8481 12 13.8481C12.7956 13.8481 13.5587 14.1681 14.1213 14.7376C14.6839 15.3071 15 16.0795 15 16.8849V24Z" fill="currentColor"/>
</svg>
