<svg width="24" height="24" viewBox="0 0 24 24" fill="none" xmlns="http://www.w3.org/2000/svg">
<path d="M12.7992 1.11112L12.7992 1.11114L23.2 10.5867V20.7608C23.2 21.4108 22.9448 22.0323 22.4936 22.489C22.0428 22.9454 21.4334 23.2 20.8 23.2H15.8V16.8849C15.8 15.8704 15.402 14.8956 14.6904 14.1753C13.9786 13.4547 13.011 13.0481 12 13.0481C10.989 13.0481 10.0214 13.4547 9.30956 14.1753C8.59802 14.8956 8.2 15.8704 8.2 16.8849V23.2H3.2C2.56665 23.2 1.95724 22.9454 1.50638 22.489C1.05519 22.0323 0.8 21.4108 0.8 20.7608V10.5867L11.2008 1.11114L11.2008 1.11112C11.4216 0.909928 11.7064 0.8 12 0.8C12.2936 0.8 12.5784 0.909928 12.7992 1.11112Z" fill="none" stroke="currentColor" stroke-width="1.6"/>
</svg>
